<svg width="81" height="27" viewBox="0 0 81 27" fill="none" xmlns="http://www.w3.org/2000/svg">
<path d="M4.6298 0.5625V6.31729H8.87017L7.77402 10.4134H4.6298V26.3653C2.07692 26.3653 0 24.2884 0 21.7355V0.5625H4.6298Z" fill="white"/>
<path d="M18.8966 11.405C17.9014 11.405 16.9783 11.6647 16.1274 12.1695C15.262 12.6743 14.5841 13.3522 14.0937 14.2031C13.5745 15.0252 13.3149 15.9627 13.3149 17.0012L13.387 26.506H9.24759L9.21875 16.3666C9.21875 14.6935 9.65144 13.1502 10.5024 11.7223C11.3678 10.2945 12.5505 9.15504 14.0505 8.31851C15.5072 7.49639 17.0937 7.07812 18.7812 7.07812L19.7043 7.15024V11.4916C19.286 11.4339 19.0264 11.405 18.8966 11.405Z" fill="white"/>
<path d="M30.5769 26.1538C28.8606 26.1538 27.2596 25.7211 25.7885 24.8701C24.3173 24.0048 23.149 22.8365 22.3125 21.3509C21.4471 19.9086 21 18.3221 21 16.5769C21 14.8606 21.4327 13.2596 22.2837 11.7885C23.149 10.3173 24.3173 9.14904 25.8029 8.26923C27.2596 7.41827 28.8461 7 30.5769 7C32.2788 7 33.8509 7.41827 35.3221 8.25481C36.7932 9.09134 37.9615 10.2163 38.8413 11.6298C39.7067 13.0721 40.1538 14.6154 40.1538 16.2884L40.125 26.0384H36.173V24.3365C34.4567 25.548 32.5961 26.1538 30.5769 26.1538ZM33.375 11.7452C32.524 11.2548 31.6009 11.0096 30.5769 11.0096C29.5817 11.0096 28.6586 11.2692 27.8077 11.774C26.9423 12.2788 26.2644 12.9567 25.774 13.8077C25.2548 14.6298 24.9952 15.5673 24.9952 16.6057C24.9952 17.6009 25.2548 18.524 25.7596 19.375C26.2644 20.2404 26.9423 20.9182 27.7933 21.4086C28.6154 21.9278 29.5529 22.1875 30.5913 22.1875C31.5865 22.1875 32.5096 21.9279 33.3605 21.423C34.2259 20.9182 34.9038 20.2404 35.423 19.3894C35.9134 18.5384 36.1586 17.6154 36.1586 16.5913C36.1586 15.5961 35.899 14.6731 35.3942 13.8221C34.8894 12.9711 34.2115 12.2644 33.375 11.7452Z" fill="#F06523"/>
<path d="M50.5967 7.28125C51.9381 7.28125 53.3227 7.59855 54.765 8.24759C56.2073 8.89663 57.4333 9.96393 58.4429 11.4495C59.5534 13.1226 60.1015 14.9255 60.1015 16.8581C60.1015 17.3774 60.0727 17.8822 60.0006 18.3726L59.9284 18.3437V18.3726L45.3035 18.762C45.5919 19.5408 46.0102 20.2187 46.5727 20.7956C47.1352 21.3726 47.7987 21.8053 48.5487 22.0793C49.1544 22.3101 49.8179 22.4254 50.5246 22.4254C51.3323 22.4254 52.0967 22.2668 52.8323 21.9495C53.5679 21.6322 54.2025 21.1851 54.7217 20.5937L58.5727 22.0793C57.7073 23.4206 56.5534 24.4879 55.1111 25.2524C53.6688 26.0312 52.14 26.4206 50.5246 26.4206C49.1544 26.4206 47.7698 26.1033 46.3419 25.4543C44.914 24.8052 43.7025 23.7235 42.6785 22.2235C41.5535 20.5504 40.9766 18.7476 40.9766 16.8149C40.9766 15.6899 41.1929 14.5505 41.6112 13.4255C42.3179 11.5937 43.5006 10.1082 45.1448 8.96874C46.8035 7.84375 48.6063 7.28125 50.5967 7.28125ZM55.7458 14.8389C55.4861 14.1033 55.0823 13.4687 54.5198 12.9062C53.9717 12.3582 53.3083 11.9399 52.5583 11.6514C51.9525 11.4207 51.289 11.3053 50.5823 11.3053C49.4285 11.3053 48.3756 11.6226 47.4092 12.2572C46.4429 12.8918 45.7506 13.7716 45.3179 14.8678L45.2458 15.0841L55.7458 14.8389Z" fill="white"/>
<path d="M79.0108 21.7608C78.1454 23.1742 76.9771 24.2992 75.4916 25.1502C74.006 26.0011 72.4194 26.4194 70.7175 26.4194C69.0012 26.4194 67.4002 25.9867 65.9291 25.1358C64.4579 24.2704 63.2897 23.1021 62.4531 21.6165C61.5877 20.1742 61.1406 18.5877 61.1406 16.8425C61.1406 15.1262 61.5733 13.5252 62.4243 12.0541C63.2897 10.5829 64.4579 9.41464 65.9435 8.53484C67.4002 7.68388 68.9868 7.26561 70.7175 7.26561C72.7367 7.26561 74.5973 7.87138 76.2992 9.06849V2.63581L80.2512 0.515625L80.28 17.1166C80.3089 18.8041 79.8762 20.3473 79.0108 21.7608ZM73.5156 12.0108C72.6646 11.5204 71.7416 11.2752 70.7175 11.2752C69.7223 11.2752 68.7993 11.5348 67.9483 12.0396C67.0829 12.5444 66.405 13.2223 65.9146 14.0733C65.3954 14.8954 65.1358 15.8329 65.1358 16.8714C65.1358 17.8666 65.3954 18.7896 65.9002 19.6406C66.405 20.506 67.0829 21.1838 67.9339 21.6742C68.756 22.1935 69.6935 22.4531 70.7319 22.4531C71.7271 22.4531 72.6502 22.1935 73.5012 21.6887C74.3666 21.1838 75.0444 20.506 75.5637 19.655C76.0541 18.804 76.2992 17.881 76.2992 16.8569C76.2992 15.8617 76.0396 14.9387 75.5348 14.0877C75.0444 13.2223 74.3666 12.53 73.5156 12.0108Z" fill="white"/>
</svg>
